PathFileType	4	(X/Y/Z)	40_2_22_p0_0-264.trc
DataRate	CameraRate	NumFrames	NumMarkers	Units	OrigDataRate	OrigDataStartFrame	OrigNumFrames
60.0	60.0	6	27	m	60.0	198	265
Frame#	Time	RHip			RKnee			RAnkle			RBigToe			RSmallToe			RHeel			LHip			LKnee			LAnkle			LBigToe			LSmallToe			LHeel			Neck			Head			Nose			RShoulder			RElbow			RWrist			RThumb			RIndex			RPinky			LShoulder			LElbow			LWrist			LThumb			LIndex			LPinky			
		X1	Y1	Z1	X2	Y2	Z2	X3	Y3	Z3	X4	Y4	Z4	X5	Y5	Z5	X6	Y6	Z6	X7	Y7	Z7	X8	Y8	Z8	X9	Y9	Z9	X10	Y10	Z10	X11	Y11	Z11	X12	Y12	Z12	X13	Y13	Z13	X14	Y14	Z14	X15	Y15	Z15	X16	Y16	Z16	X17	Y17	Z17	X18	Y18	Z18	X19	Y19	Z19	X20	Y20	Z20	X21	Y21	Z21	X22	Y22	Z22	X23	Y23	Z23	X24	Y24	Z24	X25	Y25	Z25	X26	Y26	Z26	X27	Y27	Z27	
198	3.3	0.32262445195780226	0.7129789484683545	0.8566098570793544	0.3189769214258498	0.8091435732477129	1.292209110923049	0.31677296406770994	0.9595675627074951	1.7036579555956273	0.3000610932635794	0.6998581091708296	1.7164401189739886	0.35397835075857426	0.7514476291294505	1.729705639698412	0.291325836421558	1.0380579322749133	1.76432440463343	0.10370052957230054	0.6688634532949573	0.853290755737803	0.10627752781528767	0.7598708891135523	1.2752755743421258	0.09053137443968733	0.8792606622085738	1.6955462309917109	0.1543428031851066	0.6599135709200399	1.6985888360692303	0.08207263936621345	0.7227103791287924	1.722912592070096	0.08272579828109032	0.9680922274620654	1.7623752556123664	0.22588585097474728	0.5686137036216853	0.3144966977267136	0.25343322766579574	0.4575021362098326	0.09240016480063322	0.258375008953742	0.41592015644558306	0.21388283197328986	0.38750605567973206	0.5841201288989847	0.41598138506424515	0.4242019117550673	0.6811878216656686	0.6706419829967435	0.42542517189135903	0.6873018730875673	0.942377596158189	0.36911157978238596	0.6534025463324993	1.054110235632005	0.38876584890580607	0.641089542116745	1.0708815324744505	0.4275537800573344	0.708299179865728	1.0635380255106686	0.07408316701885176	0.563071181232039	0.4047612031059197	0.0065402134649660505	0.6062764312578762	0.6696344448051262	-0.0034996587777319683	0.6419679900578693	0.9351138925975496	0.06464620933102108	0.6091557345707659	1.026642516756634	0.027212136975590523	0.6160381208762139	1.044601352478901	-0.01661621388398094	0.6635206216474193	1.0494876728799967
199	3.316666666666667	0.32260246343386234	0.7131470560782812	0.8566493987462171	0.3190135115691648	0.8091646221500752	1.2924740125612855	0.31669518235599087	0.9594418268853	1.7036057968576457	0.3006500175349131	0.6996246329332432	1.7206623236269314	0.353923767409744	0.7522298478209858	1.7300314971527748	0.29118593336235243	1.038091776830903	1.7644967213800271	0.10405579221105984	0.6715093168962256	0.8577314350158421	0.10615442602902941	0.7602243309968346	1.2752939322393513	0.09050497319744892	0.8795071321712276	1.6953008782571704	0.1499914018193835	0.6573225881557432	1.6980735821731505	0.08727470181510086	0.7240494351075304	1.7190796667142136	0.08267375510598478	0.968374496687413	1.762450842334468	0.22587385014543332	0.5685873266533295	0.31447358382313406	0.25316529925378367	0.4572919121951863	0.08881809809981699	0.25834945931255177	0.41594647960900344	0.21378553610773504	0.3874829442716103	0.5840872663639396	0.41591406644998935	0.42345782641039337	0.679265790831271	0.6629851759669069	0.42577495800202225	0.6867913451427763	0.9420596003509369	0.3714932652028056	0.6665954817579208	1.05594682108732	0.38955219172211486	0.6406016631657403	1.067009350686825	0.42799964828873355	0.7086676717423522	1.0633472862458104	0.07407369583527777	0.5631994719101556	0.40472021400984187	0.010090716082762933	0.6095409610066568	0.6730722304139333	-0.003430340275902975	0.6420420044227476	0.9350814329027523	0.0648585664201937	0.6092895843474996	1.0266030251744338	0.03264747744142435	0.6155116289530258	1.0412529008012719	-0.012380991720918392	0.6662806428917878	1.0495820474882445
200	3.3333333333333335	0.3226765002690976	0.7131807381347671	0.8565981411666507	0.31903315492665585	0.809163894658735	1.2925875908884183	0.31008456091432496	0.9776630522500983	1.7104744937424223	0.30050008038581294	0.6993288568862241	1.7206139187824192	0.3536871424499306	0.7520945347817716	1.7301112247321075	0.2912820280169146	1.0382283012073446	1.7646087883362056	0.1076290362820406	0.6715325156578607	0.8531537914230198	0.10620137185954576	0.7600781812752818	1.2752487276020597	0.09053452971748004	0.879246472876335	1.6954094212751132	0.15429693779542472	0.6599299219352335	1.69857936132491	0.08622741249633421	0.7248998805192229	1.7232810758913162	0.0827623528252789	0.968019232693106	1.7623142594629118	0.22586594709434576	0.5689211358687342	0.31455361833196505	0.24927399352598126	0.4555965735484779	0.08893602731930031	0.2582272598679587	0.4160033910333437	0.21378055111986727	0.3874874902208629	0.5841336350475566	0.41594750654436596	0.42348131293347646	0.679216959921545	0.6629766410300345	0.43081557091935874	0.6720649247588943	0.939883680561934	0.3771258974304997	0.6519120745153715	1.0531212874767109	0.38980140543665676	0.6405632161713244	1.0668054431847454	0.43694465346683725	0.7074952573535196	1.0625573285903154	0.07409832897490114	0.5631850956294637	0.4047957096092886	0.010206741942800922	0.6093913834913834	0.673110041164666	-0.0033940654547720893	0.6421962062502278	0.9351166793762115	0.06495487635570497	0.6098101418684289	1.0267322142358304	0.03254873481149484	0.6157695001448439	1.041316101812212	-0.012419324951104765	0.6662303199895251	1.0495567915636599
201	3.35	0.3226085432944212	0.7133375832743932	0.8566261293487807	0.31897827651803085	0.8091348433972707	1.2926123744835332	0.30995426483150107	0.9777703858714605	1.710440902667168	0.30063818115032953	0.6999926496024148	1.7208523981495438	0.3543997518369782	0.7513859652487247	1.7340838821273037	0.2913722945713695	1.0381225191207983	1.764625912713428	0.1076207124476166	0.6715449234583875	0.8529448894359565	0.10672062391760885	0.7594460993547875	1.2791503268848088	0.09168759095447535	0.878377932408624	1.6901937487403877	0.15441335511431767	0.6595361909722	1.6984127611078705	0.09329962932801208	0.7099234693022306	1.717133424654554	0.08193034926384103	0.9653262476507797	1.757786509520165	0.22579810056038102	0.5691528949613645	0.31460004427254395	0.24917011313364995	0.4556755318578126	0.0888124203043112	0.25813717699531774	0.41616397410351347	0.21378436978519683	0.387464472884146	0.5843113784881114	0.41601253432200586	0.4235449902844606	0.6792344635576936	0.6630706482849237	0.4334848998977635	0.6849722533031034	0.9413474499129023	0.37725562776413035	0.6522642478417885	1.0532590674139743	0.3898758299228891	0.6405987633783691	1.066817818775465	0.44018834295110415	0.7209508258407619	1.0644866187547184	0.07408051380119504	0.5632798187476517	0.404776223122168	0.006125558488075925	0.6071322148523738	0.6731608706675809	-0.0036197852965888662	0.6425472190465753	0.9314835497129419	0.07151110484874797	0.5974331347643244	1.0244591072789848	0.03964455765335303	0.6051441615089134	1.0438730714221478	-0.012295006787777963	0.6660770909030617	1.049438687711967
202	3.3666666666666667	0.32271129455151026	0.7133114734976085	0.8565235035204155	0.31898966405835294	0.8089064480910596	1.2925269386350815	0.3167740782169206	0.9592210013803949	1.7034570269208955	0.30058484413237	0.6993689873252303	1.7206367493581214	0.35428889178469875	0.7510724187608144	1.7339903404611674	0.2913227777196918	1.0378036872443142	1.7641920609535644	0.10764339806867686	0.6716820737357657	0.8529793639661459	0.09933362586952754	0.7749296486121154	1.2790266717539767	0.08991331773023911	0.8764659431415797	1.690048285168723	0.14943280929486796	0.6543672491660228	1.69280592607909	0.08600206622216482	0.7248833618081676	1.7231706856228959	0.08381934805376641	0.9800706614621446	1.7630732940035974	0.2257741676191261	0.5693139671834166	0.31462173360721435	0.2438144528645763	0.46768466716920226	0.08697138763436543	0.25800642247232625	0.41643799065237186	0.21372634895369114	0.38783776627739097	0.5862639908359699	0.4194561519666984	0.4286298210032997	0.6649934280026796	0.6622427362402272	0.4335934728100732	0.6849772998684428	0.9413438767985058	0.38117275045108356	0.653447581881183	1.0530906153606674	0.39261067199126415	0.6528277293350128	1.06851771382017	0.44036248626979735	0.7206963213725354	1.0644498601683947	0.07407220304143514	0.5634674106235409	0.4047823954171334	0.005899652804943719	0.6079804704702728	0.6808009482669728	-0.0036566469009351238	0.6429823570724632	0.9315040688277437	0.07153489080817399	0.5978009062007578	1.0245548085122236	0.039876084940683273	0.6049083620907462	1.043901198661628	-0.01281351429050538	0.6666378895524612	1.045431341281956
203	3.3833333333333333	0.32277074587708304	0.7131529190751481	0.8564417182445409	0.31936968021209283	0.8082829636084993	1.2960981691969713	0.31672834063344185	0.9595618122451934	1.703528013465664	0.300783429772712	0.7005545232938851	1.72106425652853	0.35452873191530565	0.751740484529201	1.734227702497326	0.2915818018243747	1.0383736234392134	1.7649230826883604	0.10767574410905113	0.6717605079122103	0.8529370417800322	0.1061067115459298	0.7599447482802033	1.2752136870682351	0.0899559456964766	0.8765048730820669	1.6896878087732925	0.15370947469834792	0.6567956006913892	1.6932641000933952	0.08626304371153551	0.725115426154506	1.7234067334010474	0.08313565980004856	0.9770641089390029	1.757842977980659	0.22576673134834585	0.5696519587187083	0.31466971289340495	0.24377148825389205	0.46771819255730246	0.08692854678016623	0.252978359486269	0.42791439925678393	0.212624971371098	0.3875131068399295	0.5861248769823477	0.415877437205039	0.4287442507108941	0.6650571778521605	0.6622353993610668	0.4333291739060227	0.685349989115703	0.9373660948353436	0.3811885444922144	0.6540516086092504	1.053242263381486	0.39265803548476397	0.6533675606572238	1.0685723638203524	0.44360060217702	0.7340252783640141	1.0663429002913192	0.06798606260327637	0.5761946161235909	0.4043368266108091	0.006694158626966555	0.6188402993084581	0.6696666193484222	-0.0025294259899564654	0.6570574936171966	0.9329474297316971	0.07312491985325995	0.611020540153847	1.0263244182887912	0.05058463314356247	0.5904748909317236	1.0360756359968561	-0.01278599098693732	0.6664770330602587	1.0451838228406614
